<mxfile host="app.diagrams.net" modified="2022-11-02T12:22:28.713Z" agent="5.0 (Macintosh; Intel Mac OS X 10_15_7) AppleWebKit/537.36 (KHTML, like Gecko) Chrome/106.0.0.0 Safari/537.36" etag="4sWlyIml1T-wWXbWPxJ7" version="20.5.1" type="github">
  <diagram id="_IhIAfCj_cjN-gkwvOJ_" name="第 1 页">
    <mxGraphModel dx="2866" dy="1579" grid="1" gridSize="10" guides="1" tooltips="1" connect="1" arrows="1" fold="1" page="1" pageScale="1" pageWidth="827" pageHeight="1169" math="0" shadow="0">
      <root>
        <mxCell id="0" />
        <mxCell id="1" parent="0" />
        <mxCell id="7zrCb3w0EuU8K5n_H7BA-5" style="edgeStyle=orthogonalEdgeStyle;rounded=0;orthogonalLoop=1;jettySize=auto;html=1;exitX=0.5;exitY=1;exitDx=0;exitDy=0;entryX=0.5;entryY=0;entryDx=0;entryDy=0;" edge="1" parent="1" source="7zrCb3w0EuU8K5n_H7BA-1" target="7zrCb3w0EuU8K5n_H7BA-2">
          <mxGeometry relative="1" as="geometry" />
        </mxCell>
        <mxCell id="7zrCb3w0EuU8K5n_H7BA-1" value="Triton dialect" style="rounded=1;whiteSpace=wrap;html=1;fillColor=#d5e8d4;strokeColor=#82b366;" vertex="1" parent="1">
          <mxGeometry x="320" y="360" width="120" height="60" as="geometry" />
        </mxCell>
        <mxCell id="7zrCb3w0EuU8K5n_H7BA-10" style="edgeStyle=orthogonalEdgeStyle;rounded=0;orthogonalLoop=1;jettySize=auto;html=1;exitX=0.5;exitY=1;exitDx=0;exitDy=0;entryX=0.5;entryY=0;entryDx=0;entryDy=0;" edge="1" parent="1" source="7zrCb3w0EuU8K5n_H7BA-2" target="7zrCb3w0EuU8K5n_H7BA-7">
          <mxGeometry relative="1" as="geometry" />
        </mxCell>
        <mxCell id="7zrCb3w0EuU8K5n_H7BA-2" value="TritonGPU dialect" style="rounded=1;whiteSpace=wrap;html=1;fillColor=#d5e8d4;strokeColor=#82b366;" vertex="1" parent="1">
          <mxGeometry x="320" y="530" width="120" height="60" as="geometry" />
        </mxCell>
        <mxCell id="7zrCb3w0EuU8K5n_H7BA-6" value="" style="edgeStyle=orthogonalEdgeStyle;rounded=0;orthogonalLoop=1;jettySize=auto;html=1;" edge="1" parent="1" source="7zrCb3w0EuU8K5n_H7BA-3" target="7zrCb3w0EuU8K5n_H7BA-1">
          <mxGeometry relative="1" as="geometry" />
        </mxCell>
        <mxCell id="7zrCb3w0EuU8K5n_H7BA-3" value="Python Frontend" style="rounded=1;whiteSpace=wrap;html=1;fillColor=#f5f5f5;strokeColor=#666666;fontColor=#333333;" vertex="1" parent="1">
          <mxGeometry x="320" y="190" width="120" height="60" as="geometry" />
        </mxCell>
        <mxCell id="7zrCb3w0EuU8K5n_H7BA-11" value="" style="edgeStyle=orthogonalEdgeStyle;rounded=0;orthogonalLoop=1;jettySize=auto;html=1;" edge="1" parent="1" source="7zrCb3w0EuU8K5n_H7BA-7" target="7zrCb3w0EuU8K5n_H7BA-8">
          <mxGeometry relative="1" as="geometry" />
        </mxCell>
        <mxCell id="7zrCb3w0EuU8K5n_H7BA-13" style="edgeStyle=orthogonalEdgeStyle;rounded=0;orthogonalLoop=1;jettySize=auto;html=1;exitX=0;exitY=0.5;exitDx=0;exitDy=0;entryX=0;entryY=0.5;entryDx=0;entryDy=0;" edge="1" parent="1" source="7zrCb3w0EuU8K5n_H7BA-7" target="7zrCb3w0EuU8K5n_H7BA-9">
          <mxGeometry relative="1" as="geometry">
            <Array as="points">
              <mxPoint x="270" y="720" />
              <mxPoint x="270" y="960" />
            </Array>
          </mxGeometry>
        </mxCell>
        <mxCell id="7zrCb3w0EuU8K5n_H7BA-14" value="Inline PTX Asm" style="edgeLabel;html=1;align=center;verticalAlign=middle;resizable=0;points=[];" vertex="1" connectable="0" parent="7zrCb3w0EuU8K5n_H7BA-13">
          <mxGeometry x="-0.0941" relative="1" as="geometry">
            <mxPoint y="16" as="offset" />
          </mxGeometry>
        </mxCell>
        <mxCell id="7zrCb3w0EuU8K5n_H7BA-7" value="LLVM dialect" style="rounded=1;whiteSpace=wrap;html=1;fillColor=#f5f5f5;strokeColor=#666666;fontColor=#333333;" vertex="1" parent="1">
          <mxGeometry x="320" y="690" width="120" height="60" as="geometry" />
        </mxCell>
        <mxCell id="7zrCb3w0EuU8K5n_H7BA-12" value="" style="edgeStyle=orthogonalEdgeStyle;rounded=0;orthogonalLoop=1;jettySize=auto;html=1;" edge="1" parent="1" source="7zrCb3w0EuU8K5n_H7BA-8" target="7zrCb3w0EuU8K5n_H7BA-9">
          <mxGeometry relative="1" as="geometry" />
        </mxCell>
        <mxCell id="7zrCb3w0EuU8K5n_H7BA-8" value="LLVM IR" style="rounded=1;whiteSpace=wrap;html=1;fillColor=#f5f5f5;strokeColor=#666666;fontColor=#333333;" vertex="1" parent="1">
          <mxGeometry x="320" y="810" width="120" height="60" as="geometry" />
        </mxCell>
        <mxCell id="7zrCb3w0EuU8K5n_H7BA-9" value="PTX" style="rounded=1;whiteSpace=wrap;html=1;fillColor=#f5f5f5;strokeColor=#666666;fontColor=#333333;" vertex="1" parent="1">
          <mxGeometry x="320" y="930" width="120" height="60" as="geometry" />
        </mxCell>
      </root>
    </mxGraphModel>
  </diagram>
</mxfile>
